<svg width="32" height="32" viewBox="0 0 32 32" fill="none" xmlns="http://www.w3.org/2000/svg">
<path d="M23.4933 14.3333C22.92 14.3333 22.4666 13.8667 22.4666 13.3067C22.4666 12.8133 21.9733 11.7867 21.1466 10.8933C20.3333 10.0267 19.44 9.52001 18.6933 9.52001C18.12 9.52001 17.6666 9.05334 17.6666 8.49334C17.6666 7.93334 18.1333 7.46667 18.6933 7.46667C20.0266 7.46667 21.4266 8.18668 22.6533 9.48001C23.8 10.6933 24.5333 12.2 24.5333 13.2933C24.5333 13.8667 24.0666 14.3333 23.4933 14.3333Z" fill="white"/>
<path d="M28.3067 14.3333C27.7334 14.3333 27.2801 13.8666 27.2801 13.3066C27.2801 8.57329 23.4267 4.73329 18.7067 4.73329C18.1334 4.73329 17.6801 4.26663 17.6801 3.70663C17.6801 3.14663 18.1334 2.66663 18.6934 2.66663C24.5601 2.66663 29.3334 7.43996 29.3334 13.3066C29.3334 13.8666 28.8667 14.3333 28.3067 14.3333Z" fill="white"/>
<path opacity="0.4" d="M15.72 18.9466L11.36 23.3066C10.88 22.88 10.4133 22.44 9.95996 21.9866C8.58663 20.6 7.34663 19.1466 6.23996 17.6266C5.14663 16.1066 4.26663 14.5866 3.62663 13.08C2.98663 11.56 2.66663 10.1066 2.66663 8.71996C2.66663 7.81329 2.82663 6.94663 3.14663 6.14663C3.46663 5.33329 3.97329 4.58663 4.67996 3.91996C5.53329 3.07996 6.46663 2.66663 7.45329 2.66663C7.82663 2.66663 8.19996 2.74663 8.53329 2.90663C8.87996 3.06663 9.18663 3.30663 9.42663 3.65329L12.52 8.01329C12.76 8.34663 12.9333 8.65329 13.0533 8.94663C13.1733 9.22663 13.24 9.50663 13.24 9.75996C13.24 10.08 13.1466 10.4 12.96 10.7066C12.7866 11.0133 12.5333 11.3333 12.2133 11.6533L11.2 12.7066C11.0533 12.8533 10.9866 13.0266 10.9866 13.24C10.9866 13.3466 11 13.44 11.0266 13.5466C11.0666 13.6533 11.1066 13.7333 11.1333 13.8133C11.3733 14.2533 11.7866 14.8266 12.3733 15.52C12.9733 16.2133 13.6133 16.92 14.3066 17.6266C14.7866 18.0933 15.2533 18.5466 15.72 18.9466Z" fill="white"/>
<path d="M29.2934 24.44C29.2934 24.8133 29.2267 25.2 29.0934 25.5733C29.0534 25.68 29.0134 25.7866 28.96 25.8933C28.7334 26.3733 28.4401 26.8266 28.0534 27.2533C27.4001 27.9733 26.68 28.4933 25.8667 28.8266C25.8534 28.8266 25.84 28.84 25.8267 28.84C25.04 29.16 24.1867 29.3333 23.2667 29.3333C21.9067 29.3333 20.4534 29.0133 18.92 28.36C17.3867 27.7066 15.8534 26.8266 14.3334 25.72C13.8134 25.3333 13.2934 24.9466 12.8 24.5333L17.16 20.1733C17.5334 20.4533 17.8667 20.6666 18.1467 20.8133C18.2134 20.84 18.2934 20.88 18.3867 20.92C18.4934 20.96 18.6 20.9733 18.72 20.9733C18.9467 20.9733 19.12 20.8933 19.2667 20.7466L20.28 19.7466C20.6134 19.4133 20.9334 19.16 21.24 19C21.5467 18.8133 21.8534 18.72 22.1867 18.72C22.44 18.72 22.7067 18.7733 23 18.8933C23.2934 19.0133 23.6 19.1866 23.9334 19.4133L28.3467 22.5466C28.6934 22.7866 28.9334 23.0666 29.08 23.4C29.2134 23.7333 29.2934 24.0666 29.2934 24.44Z" fill="white"/>
</svg>
