<svg width="18" height="18" viewBox="0 0 18 18" fill="none" xmlns="http://www.w3.org/2000/svg">
<path d="M9.1123 12.375V13.95" stroke="#FF9704" stroke-linecap="round" stroke-linejoin="round"/>
<path d="M5.3623 16.5H12.8623V15.75C12.8623 14.925 12.1873 14.25 11.3623 14.25H6.8623C6.0373 14.25 5.3623 14.925 5.3623 15.75V16.5V16.5Z" stroke="#FF9704" stroke-miterlimit="10"/>
<path d="M4.6123 16.5H13.6123" stroke="#FF9704" stroke-linecap="round" stroke-linejoin="round"/>
<path d="M9 12C6.0975 12 3.75 9.6525 3.75 6.75V4.5C3.75 2.8425 5.0925 1.5 6.75 1.5H11.25C12.9075 1.5 14.25 2.8425 14.25 4.5V6.75C14.25 9.6525 11.9025 12 9 12Z" stroke="#FF9704" stroke-linecap="round" stroke-linejoin="round"/>
<path d="M4.10277 8.73745C3.54027 8.55745 3.04527 8.22745 2.65527 7.83745C1.98027 7.08745 1.53027 6.18745 1.53027 5.13745C1.53027 4.08745 2.35527 3.26245 3.40527 3.26245H3.89277C3.74277 3.60745 3.66777 3.98995 3.66777 4.38745V6.63745C3.66777 7.38745 3.82527 8.09245 4.10277 8.73745Z" stroke="#FF9704" stroke-linecap="round" stroke-linejoin="round"/>
<path d="M13.8975 8.73745C14.46 8.55745 14.955 8.22745 15.345 7.83745C16.02 7.08745 16.47 6.18745 16.47 5.13745C16.47 4.08745 15.645 3.26245 14.595 3.26245H14.1075C14.2575 3.60745 14.3325 3.98995 14.3325 4.38745V6.63745C14.3325 7.38745 14.175 8.09245 13.8975 8.73745Z" stroke="#FF9704" stroke-linecap="round" stroke-linejoin="round"/>
</svg>
