<svg width="12" height="12" viewBox="0 0 12 12" fill="none" xmlns="http://www.w3.org/2000/svg">
<path d="M10.8802 7.96L7.68023 2.2C7.25023 1.425 6.65523 1 6.00023 1C5.34523 1 4.75023 1.425 4.32023 2.2L1.12023 7.96C0.715233 8.695 0.670233 9.4 0.995233 9.955C1.32023 10.51 1.96023 10.815 2.80023 10.815H9.20023C10.0402 10.815 10.6802 10.51 11.0052 9.955C11.3302 9.4 11.2852 8.69 10.8802 7.96ZM5.62523 4.5C5.62523 4.295 5.79523 4.125 6.00023 4.125C6.20523 4.125 6.37523 4.295 6.37523 4.5V7C6.37523 7.205 6.20523 7.375 6.00023 7.375C5.79523 7.375 5.62523 7.205 5.62523 7V4.5ZM6.35523 8.855C6.33023 8.875 6.30523 8.895 6.28023 8.915C6.25023 8.935 6.22023 8.95 6.19023 8.96C6.16023 8.975 6.13023 8.985 6.09523 8.99C6.06523 8.995 6.03023 9 6.00023 9C5.97023 9 5.93523 8.995 5.90023 8.99C5.87023 8.985 5.84023 8.975 5.81023 8.96C5.78023 8.95 5.75023 8.935 5.72023 8.915C5.69523 8.895 5.67023 8.875 5.64523 8.855C5.55523 8.76 5.50023 8.63 5.50023 8.5C5.50023 8.37 5.55523 8.24 5.64523 8.145C5.67023 8.125 5.69523 8.105 5.72023 8.085C5.75023 8.065 5.78023 8.05 5.81023 8.04C5.84023 8.025 5.87023 8.015 5.90023 8.01C5.96523 7.995 6.03523 7.995 6.09523 8.01C6.13023 8.015 6.16023 8.025 6.19023 8.04C6.22023 8.05 6.25023 8.065 6.28023 8.085C6.30523 8.105 6.33023 8.125 6.35523 8.145C6.44523 8.24 6.50023 8.37 6.50023 8.5C6.50023 8.63 6.44523 8.76 6.35523 8.855Z" fill="#F01212"/>
</svg>
