<svg width="16" height="16" viewBox="0 0 16 16" fill="none" xmlns="http://www.w3.org/2000/svg">
<path d="M14.3536 7.24667L13.3402 6.23334C13.1669 6.06 13.0269 5.72 13.0269 5.48V4.04C13.0269 3.45334 12.5469 2.97334 11.9602 2.97334H10.5269C10.2869 2.97334 9.94691 2.83334 9.77358 2.66L8.76025 1.64667C8.34691 1.23334 7.66691 1.23334 7.25358 1.64667L6.22691 2.66C6.06025 2.83334 5.72025 2.97334 5.47358 2.97334H4.04025C3.45358 2.97334 2.97358 3.45334 2.97358 4.04V5.47334C2.97358 5.71334 2.83358 6.05334 2.66025 6.22667L1.64691 7.24C1.23358 7.65334 1.23358 8.33334 1.64691 8.74667L2.66025 9.76C2.83358 9.93334 2.97358 10.2733 2.97358 10.5133V11.9467C2.97358 12.5333 3.45358 13.0133 4.04025 13.0133H5.47358C5.71358 13.0133 6.05358 13.1533 6.22691 13.3267L7.24025 14.34C7.65358 14.7533 8.33358 14.7533 8.74691 14.34L9.76025 13.3267C9.93358 13.1533 10.2736 13.0133 10.5136 13.0133H11.9469C12.5336 13.0133 13.0136 12.5333 13.0136 11.9467V10.5133C13.0136 10.2733 13.1536 9.93334 13.3269 9.76L14.3402 8.74667C14.7736 8.34 14.7736 7.66 14.3536 7.24667ZM5.33358 6C5.33358 5.63334 5.63358 5.33334 6.00025 5.33334C6.36691 5.33334 6.66691 5.63334 6.66691 6C6.66691 6.36667 6.37358 6.66667 6.00025 6.66667C5.63358 6.66667 5.33358 6.36667 5.33358 6ZM6.35358 10.3533C6.25358 10.4533 6.12691 10.5 6.00025 10.5C5.87358 10.5 5.74691 10.4533 5.64691 10.3533C5.45358 10.16 5.45358 9.84 5.64691 9.64667L9.64691 5.64667C9.84025 5.45334 10.1602 5.45334 10.3536 5.64667C10.5469 5.84 10.5469 6.16 10.3536 6.35334L6.35358 10.3533ZM10.0002 10.6667C9.62691 10.6667 9.32691 10.3667 9.32691 10C9.32691 9.63334 9.62691 9.33334 9.99358 9.33334C10.3602 9.33334 10.6602 9.63334 10.6602 10C10.6602 10.3667 10.3669 10.6667 10.0002 10.6667Z" fill="#F01212"/>
</svg>
