<svg width="25" height="24" viewBox="0 0 25 24" fill="none" xmlns="http://www.w3.org/2000/svg">
<path d="M21.6922 9.14993C19.3728 5.51993 15.9792 3.42993 12.4047 3.42993C10.6175 3.42993 8.88053 3.94993 7.29414 4.91993C5.70774 5.89993 4.28199 7.32993 3.11729 9.14993C2.11325 10.7199 2.11325 13.2699 3.11729 14.8399C5.43665 18.4799 8.83033 20.5599 12.4047 20.5599C14.1919 20.5599 15.929 20.0399 17.5154 19.0699C19.1017 18.0899 20.5275 16.6599 21.6922 14.8399C22.6962 13.2799 22.6962 10.7199 21.6922 9.14993ZM12.4047 16.0399C10.1557 16.0399 8.34839 14.2299 8.34839 11.9999C8.34839 9.76993 10.1557 7.95993 12.4047 7.95993C14.6538 7.95993 16.4611 9.76993 16.4611 11.9999C16.4611 14.2299 14.6538 16.0399 12.4047 16.0399Z" fill="white"/>
<path d="M12.4055 9.13989C10.8291 9.13989 9.54395 10.4199 9.54395 11.9999C9.54395 13.5699 10.8291 14.8499 12.4055 14.8499C13.9818 14.8499 15.2771 13.5699 15.2771 11.9999C15.2771 10.4299 13.9818 9.13989 12.4055 9.13989Z" fill="white"/>
</svg>
