<svg width="24" height="24" viewBox="0 0 24 24" fill="none" xmlns="http://www.w3.org/2000/svg">
<path d="M6.15619 9.323L6.15419 9.325L6.15019 9.328L6.14019 9.336C6.09679 9.36894 6.05476 9.40363 6.01419 9.44C5.9095 9.53273 5.80875 9.62982 5.71219 9.731C5.47219 9.984 5.16419 10.36 4.87519 10.863C4.29319 11.878 3.80419 13.391 4.07919 15.414C4.35019 17.411 5.18919 19.08 6.60719 20.244C8.02119 21.404 9.93519 22 12.2502 22C14.6372 22 16.5432 21.105 17.8042 19.57C19.0542 18.049 19.6122 15.974 19.4792 13.706C19.3512 11.53 18.1662 9.879 17.1192 8.421L16.8202 8.004C15.6782 6.392 14.7772 4.907 14.9962 2.829C15.0073 2.72442 14.9962 2.61867 14.9638 2.51863C14.9313 2.41859 14.8782 2.32649 14.8079 2.24831C14.7375 2.17014 14.6515 2.10763 14.5554 2.06485C14.4594 2.02207 14.3554 1.99998 14.2502 2C13.8682 2 13.4302 2.118 13.0082 2.296C12.5195 2.50551 12.0584 2.77418 11.6352 3.096C10.7102 3.794 9.78519 4.846 9.29219 6.252C8.80019 7.654 9.05019 8.99 9.41019 9.963C9.64719 10.602 9.39019 11.233 9.00319 11.417C8.83853 11.4949 8.65013 11.5061 8.47737 11.4484C8.30461 11.3906 8.16087 11.2683 8.07619 11.107L7.27019 9.576C7.21975 9.47995 7.14907 9.396 7.06303 9.32992C6.97699 9.26384 6.87763 9.21721 6.77182 9.19326C6.66601 9.1693 6.55627 9.16858 6.45016 9.19115C6.34404 9.21373 6.24409 9.25905 6.15719 9.324" fill="#FF9704"/>
</svg>
