<svg width="66" height="66" viewBox="0 0 66 66" fill="none" xmlns="http://www.w3.org/2000/svg">
<rect y="12.3325" width="43.3818" height="43.3818" rx="11" transform="rotate(-16.5156 0 12.3325)" fill="#FF9704" fill-opacity="0.2"/>
<rect x="11" y="11.0005" width="55" height="55" rx="10" fill="url(#paint0_linear_139_631)"/>
<path d="M29.6666 38C28.4133 38 27.2533 38.44 26.3333 39.1733C25.1066 40.1467 24.3333 41.6533 24.3333 43.3333C24.3333 44.3333 24.6133 45.28 25.1066 46.08C26.0266 47.6267 27.7199 48.6667 29.6666 48.6667C31.0133 48.6667 32.2399 48.1733 33.1733 47.3333C33.5866 46.9867 33.9466 46.56 34.2266 46.08C34.7199 45.28 34.9999 44.3333 34.9999 43.3333C34.9999 40.3867 32.6133 38 29.6666 38ZM32.4266 42.76L29.5866 45.3867C29.3999 45.56 29.1466 45.6533 28.9066 45.6533C28.6533 45.6533 28.3999 45.56 28.1999 45.36L26.8799 44.04C26.4933 43.6533 26.4933 43.0133 26.8799 42.6267C27.2666 42.24 27.9066 42.24 28.2933 42.6267L28.9333 43.2667L31.0666 41.2933C31.4666 40.92 32.1066 40.9467 32.4799 41.3467C32.8533 41.7467 32.8266 42.3867 32.4266 42.76Z" fill="#F1F1F1"/>
<path d="M42.7999 23.2667V28.3334H40.7999V23.2667C40.7999 22.9067 40.4799 22.7334 40.2666 22.7334C40.1999 22.7334 40.1333 22.7467 40.0666 22.7734L29.4933 26.7601C28.7866 27.0267 28.3333 27.6934 28.3333 28.4534V29.3467C27.1199 30.2534 26.3333 31.7067 26.3333 33.3467V28.4534C26.3333 26.8667 27.3066 25.4534 28.7866 24.8934L39.3733 20.8934C39.6666 20.7867 39.9733 20.7334 40.2666 20.7334C41.5999 20.7334 42.7999 21.8134 42.7999 23.2667Z" fill="#F1F1F1"/>
<path d="M51.6667 37.3334V38.6667C51.6667 39.0267 51.3867 39.3201 51.0134 39.3334H49.0667C48.3601 39.3334 47.7201 38.8134 47.6667 38.1201C47.6267 37.7067 47.7867 37.3201 48.0534 37.0534C48.2934 36.8001 48.6267 36.6667 48.9867 36.6667H51.0001C51.3867 36.6801 51.6667 36.9734 51.6667 37.3334Z" fill="#F1F1F1"/>
<path d="M48.9732 35.2666H50.3333C51.0666 35.2666 51.6666 34.6666 51.6666 33.9333V33.3466C51.6666 30.5866 49.4132 28.3333 46.6532 28.3333H31.3466C30.2133 28.3333 29.1733 28.7066 28.3333 29.3466C27.1199 30.2533 26.3333 31.7066 26.3333 33.3466V35.7199C26.3333 36.2266 26.8666 36.5466 27.3466 36.3866C28.0933 36.1333 28.8799 35.9999 29.6666 35.9999C33.7066 35.9999 36.9999 39.2933 36.9999 43.3333C36.9999 44.2933 36.7466 45.3466 36.3466 46.2799C36.1333 46.7599 36.4666 47.3333 36.9866 47.3333H46.6532C49.4132 47.3333 51.6666 45.0799 51.6666 42.3199V42.0666C51.6666 41.3333 51.0666 40.7333 50.3333 40.7333H49.1733C47.8932 40.7333 46.6666 39.9466 46.3333 38.7066C46.0666 37.6933 46.3866 36.7066 47.0533 36.0666C47.5466 35.5599 48.2266 35.2666 48.9732 35.2666ZM41.6666 34.9999H34.9999C34.4533 34.9999 33.9999 34.5466 33.9999 33.9999C33.9999 33.4533 34.4533 32.9999 34.9999 32.9999H41.6666C42.2133 32.9999 42.6666 33.4533 42.6666 33.9999C42.6666 34.5466 42.2133 34.9999 41.6666 34.9999Z" fill="#F1F1F1"/>
<defs>
<linearGradient id="paint0_linear_139_631" x1="38.5" y1="11.0005" x2="22.8919" y2="59.3113" gradientUnits="userSpaceOnUse">
<stop stop-color="#FF9704"/>
<stop offset="1" stop-color="white"/>
</linearGradient>
</defs>
</svg>
