<svg width="66" height="66" viewBox="0 0 66 66" fill="none" xmlns="http://www.w3.org/2000/svg">
<rect y="12.3325" width="43.3818" height="43.3818" rx="11" transform="rotate(-16.5156 0 12.3325)" fill="#FF9704" fill-opacity="0.2"/>
<rect x="11" y="11.0005" width="55" height="55" rx="10" fill="url(#paint0_linear_139_632)"/>
<path d="M39.0001 20.6667C35.5067 20.6667 32.6667 23.5067 32.6667 27.0001C32.6667 30.4267 35.3467 33.2001 38.8401 33.3201C38.9467 33.3067 39.0534 33.3067 39.1334 33.3201C39.1601 33.3201 39.1734 33.3201 39.2001 33.3201C39.2134 33.3201 39.2134 33.3201 39.2267 33.3201C42.6401 33.2001 45.3201 30.4267 45.3334 27.0001C45.3334 23.5067 42.4934 20.6667 39.0001 20.6667Z" fill="white"/>
<path d="M45.7733 36.88C42.0533 34.4 35.9866 34.4 32.2399 36.88C30.5466 38 29.6133 39.5334 29.6133 41.1734C29.6133 42.8134 30.5466 44.3334 32.2266 45.4534C34.0933 46.7067 36.5466 47.3334 38.9999 47.3334C41.4533 47.3334 43.9066 46.7067 45.7733 45.4534C47.4533 44.32 48.3866 42.8 48.3866 41.1467C48.3733 39.52 47.4533 37.9867 45.7733 36.88ZM42.1066 40.08L38.7466 43.44C38.5866 43.6 38.3733 43.68 38.1599 43.68C37.9466 43.68 37.7333 43.5867 37.5733 43.44L35.8933 41.76C35.5733 41.44 35.5733 40.9067 35.8933 40.5867C36.2133 40.2667 36.7466 40.2667 37.0666 40.5867L38.1599 41.68L40.9333 38.9067C41.2533 38.5867 41.7866 38.5867 42.1066 38.9067C42.4399 39.2267 42.4399 39.76 42.1066 40.08Z" fill="white"/>
<defs>
<linearGradient id="paint0_linear_139_632" x1="38.5" y1="11.0005" x2="22.8919" y2="59.3113" gradientUnits="userSpaceOnUse">
<stop stop-color="#FF9704"/>
<stop offset="1" stop-color="white"/>
</linearGradient>
</defs>
</svg>
