<svg width="24" height="24" viewBox="0 0 24 24" fill="none" xmlns="http://www.w3.org/2000/svg">
<path d="M3.58008 5.15997H17.4201C19.0801 5.15997 20.4201 6.49997 20.4201 8.15997V11.48" stroke="#FF9704" stroke-width="1.5" stroke-miterlimit="10" stroke-linecap="round" stroke-linejoin="round"/>
<path d="M6.74008 2L3.58008 5.15997L6.74008 8.32001" stroke="#FF9704" stroke-width="1.5" stroke-miterlimit="10" stroke-linecap="round" stroke-linejoin="round"/>
<path d="M20.4201 18.84H6.58008C4.92008 18.84 3.58008 17.5 3.58008 15.84V12.52" stroke="#FF9704" stroke-width="1.5" stroke-miterlimit="10" stroke-linecap="round" stroke-linejoin="round"/>
<path d="M17.2598 22L20.4198 18.84L17.2598 15.68" stroke="#FF9704" stroke-width="1.5" stroke-miterlimit="10" stroke-linecap="round" stroke-linejoin="round"/>
<path d="M9.24922 17C9.09589 15.8533 8.88922 14.87 8.62922 14.05C8.37589 13.2233 8.12922 12.5467 7.88922 12.02C7.60255 11.3933 7.30589 10.8733 6.99922 10.46L7.96922 9.66C7.96922 9.66 8.01255 9.73667 8.09922 9.89C8.19255 10.0367 8.30589 10.2333 8.43922 10.48C8.57922 10.7267 8.72589 11.0133 8.87922 11.34C9.03922 11.66 9.18589 11.9933 9.31922 12.34C9.45255 12.6867 9.56255 13.0367 9.64922 13.39C9.74255 13.7367 9.78922 14.06 9.78922 14.36C9.78922 14.1333 9.81589 13.8933 9.86922 13.64C9.92255 13.3867 9.98922 13.13 10.0692 12.87C10.1559 12.6033 10.2526 12.34 10.3592 12.08C10.4726 11.82 10.5859 11.57 10.6992 11.33C10.9659 10.7767 11.2692 10.22 11.6092 9.66L12.5792 10.46C12.2192 11.0067 11.8859 11.62 11.5792 12.3C11.3192 12.8867 11.0659 13.5767 10.8192 14.37C10.5792 15.1633 10.4159 16.04 10.3292 17H9.24922ZM14.5609 9.79C14.5609 9.79 14.5742 9.85333 14.6009 9.98C14.6342 10.1 14.6709 10.2567 14.7109 10.45C14.7509 10.6367 14.7875 10.8467 14.8209 11.08C14.8609 11.3133 14.8875 11.5367 14.9009 11.75C14.9142 11.8633 14.9675 11.9567 15.0609 12.03C15.1542 12.0967 15.2575 12.13 15.3709 12.13H16.6009V9.85H17.8009V12.21C17.8009 12.3767 17.7675 12.5367 17.7009 12.69C17.6409 12.8367 17.5542 12.9667 17.4409 13.08C17.3342 13.1867 17.2075 13.2733 17.0609 13.34C16.9142 13.4 16.7575 13.43 16.5909 13.43H15.5509C15.4375 13.43 15.3275 13.4133 15.2209 13.38C15.1142 13.34 15.0209 13.2633 14.9409 13.15V17H13.8409V12.63C13.8409 12.33 13.8242 12.0333 13.7909 11.74C13.7575 11.44 13.7109 11.14 13.6509 10.84L13.4809 10L14.5609 9.79Z" fill="#FF9704"/>
</svg>
