<svg width="66" height="66" viewBox="0 0 66 66" fill="none" xmlns="http://www.w3.org/2000/svg">
<rect y="12.3325" width="43.3818" height="43.3818" rx="11" transform="rotate(-16.5156 0 12.3325)" fill="#FF9704" fill-opacity="0.2"/>
<rect x="11" y="11.0005" width="55" height="55" rx="10" fill="url(#paint0_linear_139_633)"/>
<path d="M52.3333 46.3334H51V31.3067C51 30.48 50.6266 29.7067 49.9733 29.2L48.3333 27.92L48.3066 24.6534C48.3066 23.92 47.7066 23.3334 46.9733 23.3334H42.4266L40.64 21.9467C39.68 21.1867 38.32 21.1867 37.36 21.9467L28.0266 29.2C27.3733 29.7067 27 30.48 27 31.2934L26.9333 46.3334H25.6666C25.12 46.3334 24.6666 46.7867 24.6666 47.3334C24.6666 47.88 25.12 48.3334 25.6666 48.3334H52.3333C52.88 48.3334 53.3333 47.88 53.3333 47.3334C53.3333 46.7867 52.88 46.3334 52.3333 46.3334ZM31.6666 35V33C31.6666 32.2667 32.2666 31.6667 33 31.6667H35.6666C36.4 31.6667 37 32.2667 37 33V35C37 35.7334 36.4 36.3334 35.6666 36.3334H33C32.2666 36.3334 31.6666 35.7334 31.6666 35ZM42.3333 46.3334H35.6666V42.6667C35.6666 41.56 36.56 40.6667 37.6666 40.6667H40.3333C41.44 40.6667 42.3333 41.56 42.3333 42.6667V46.3334ZM46.3333 35C46.3333 35.7334 45.7333 36.3334 45 36.3334H42.3333C41.6 36.3334 41 35.7334 41 35V33C41 32.2667 41.6 31.6667 42.3333 31.6667H45C45.7333 31.6667 46.3333 32.2667 46.3333 33V35Z" fill="white"/>
<defs>
<linearGradient id="paint0_linear_139_633" x1="38.5" y1="11.0005" x2="22.8919" y2="59.3113" gradientUnits="userSpaceOnUse">
<stop stop-color="#FF9704"/>
<stop offset="1" stop-color="white"/>
</linearGradient>
</defs>
</svg>
