<svg width="66" height="66" viewBox="0 0 66 66" fill="none" xmlns="http://www.w3.org/2000/svg">
<rect y="12.3325" width="43.3818" height="43.3818" rx="11" transform="rotate(-16.5156 0 12.3325)" fill="#FF9704" fill-opacity="0.2"/>
<rect x="11" y="11.0005" width="55" height="55" rx="10" fill="url(#paint0_linear_139_634)"/>
<path d="M26.6667 42.8667C26.12 42.8667 25.6667 42.4134 25.6667 41.8667V34.2667C25.6 30.6534 26.9467 27.2401 29.4533 24.6801C31.96 22.1334 35.32 20.7334 38.9333 20.7334C46.32 20.7334 52.3333 26.7467 52.3333 34.1334V41.7334C52.3333 42.2801 51.88 42.7334 51.3333 42.7334C50.7867 42.7334 50.3333 42.2801 50.3333 41.7334V34.1334C50.3333 27.8534 45.2267 22.7334 38.9333 22.7334C35.8533 22.7334 33 23.9201 30.88 26.0801C28.7467 28.2534 27.6133 31.1467 27.6667 34.2401V41.8534C27.6667 42.4134 27.2267 42.8667 26.6667 42.8667Z" fill="white"/>
<path d="M30.92 34.6001H30.7466C27.9466 34.6001 25.6666 36.8801 25.6666 39.6801V42.1868C25.6666 44.9868 27.9466 47.2668 30.7466 47.2668H30.92C33.72 47.2668 36 44.9868 36 42.1868V39.6801C36 36.8801 33.72 34.6001 30.92 34.6001Z" fill="white"/>
<path d="M47.2533 34.6001H47.08C44.28 34.6001 42 36.8801 42 39.6801V42.1868C42 44.9868 44.28 47.2668 47.08 47.2668H47.2533C50.0533 47.2668 52.3333 44.9868 52.3333 42.1868V39.6801C52.3333 36.8801 50.0533 34.6001 47.2533 34.6001Z" fill="white"/>
<defs>
<linearGradient id="paint0_linear_139_634" x1="38.5" y1="11.0005" x2="22.8919" y2="59.3113" gradientUnits="userSpaceOnUse">
<stop stop-color="#FF9704"/>
<stop offset="1" stop-color="white"/>
</linearGradient>
</defs>
</svg>
