<svg width="24" height="24" viewBox="0 0 24 24" fill="none" xmlns="http://www.w3.org/2000/svg">
<path d="M14.55 21.67C18.84 20.54 22 16.64 22 12C22 6.48 17.56 2 12 2C5.33 2 2 7.56 2 7.56M2 7.56V3M2 7.56H4.01H6.44" stroke="#02C33F" stroke-width="1.5" stroke-linecap="round" stroke-linejoin="round"/>
<path d="M2 12C2 17.52 6.48 22 12 22" stroke="#02C33F" stroke-width="1.5" stroke-linecap="round" stroke-linejoin="round" stroke-dasharray="3 3"/>
<path d="M15.6604 11.21C15.6604 11.3767 15.6271 11.5367 15.5604 11.69C15.5004 11.8367 15.4138 11.9667 15.3004 12.08C15.1938 12.1867 15.0671 12.2733 14.9204 12.34C14.7738 12.4 14.6171 12.43 14.4504 12.43H13.7704C13.5638 12.43 13.3671 12.39 13.1804 12.31C13.0004 12.2233 12.8371 12.0767 12.6904 11.87C12.5371 12.0633 12.3804 12.2067 12.2204 12.3C12.0604 12.3867 11.8738 12.43 11.6604 12.43C11.5671 12.43 11.4538 12.4133 11.3204 12.38C11.1938 12.3467 11.0871 12.27 11.0004 12.15V16H9.90043V11.63C9.90043 11.33 9.88376 11.0333 9.85043 10.74C9.8171 10.44 9.77043 10.14 9.71043 9.84L9.54043 9L10.6204 8.79C10.6271 8.81667 10.6404 8.88667 10.6604 9C10.6871 9.11333 10.7171 9.26 10.7504 9.44C10.7904 9.62 10.8271 9.82333 10.8604 10.05C10.9004 10.27 10.9338 10.5033 10.9604 10.75C10.9738 10.8633 11.0271 10.9567 11.1204 11.03C11.2138 11.0967 11.3171 11.13 11.4304 11.13H11.5704C11.7038 11.13 11.8204 11.09 11.9204 11.01C12.0204 10.9233 12.0804 10.8167 12.1004 10.69L12.4704 8.87L13.5504 9.08L13.2404 10.64C13.2271 10.76 13.2571 10.8733 13.3304 10.98C13.4038 11.08 13.5204 11.13 13.6804 11.13H14.5604V8.84H15.6604V11.21Z" fill="#02C33F"/>
</svg>
