<svg width="24" height="24" viewBox="0 0 24 24" fill="none" xmlns="http://www.w3.org/2000/svg">
<path d="M21 13V16C21 17.0609 20.5786 18.0783 19.8284 18.8284C19.0783 19.5786 18.0609 20 17 20H7C5.93913 20 4.92172 19.5786 4.17157 18.8284C3.42143 18.0783 3 17.0609 3 16V13.6C3 13.4409 3.06321 13.2883 3.17574 13.1757C3.28826 13.0632 3.44087 13 3.6 13H21ZM21 13V7C21 5.93913 20.5786 4.92172 19.8284 4.17157C19.0783 3.42143 18.0609 3 17 3H12M16 20L17 22M8 20L7 22" stroke="black" stroke-width="1.5" stroke-linecap="round" stroke-linejoin="round"/>
<path d="M15.4004 8H8.60039C8.26939 8 8.00439 7.732 8.04039 7.402C8.18639 6.075 8.86339 3 12.0004 3C15.1374 3 15.8144 6.075 15.9604 7.402C15.9964 7.732 15.7314 8 15.4004 8Z" stroke="black" stroke-width="1.5" stroke-linecap="round" stroke-linejoin="round"/>
</svg>
