<svg width="40" height="40" viewBox="0 0 40 40" fill="none" xmlns="http://www.w3.org/2000/svg">
<path d="M35.9335 17.9L33.6835 15.2667C33.2668 14.7667 32.9168 13.8334 32.9168 13.1667V10.3334C32.9168 8.56672 31.4668 7.11672 29.7001 7.11672H26.8668C26.2001 7.11672 25.2501 6.76672 24.7501 6.35005L22.1168 4.10005C20.9668 3.11672 19.0835 3.11672 17.9335 4.10005L15.2668 6.35005C14.7668 6.76672 13.8335 7.11672 13.1668 7.11672H10.2835C8.5168 7.11672 7.0668 8.56672 7.0668 10.3334V13.1667C7.0668 13.8167 6.73346 14.75 6.3168 15.25L4.0668 17.9C3.10013 19.0667 3.10013 20.9334 4.0668 22.0667L6.3168 24.7167C6.73346 25.2001 7.0668 26.15 7.0668 26.8001V29.6501C7.0668 31.4167 8.5168 32.8667 10.2835 32.8667H13.1835C13.8335 32.8667 14.7835 33.2167 15.2835 33.6334L17.9168 35.8834C19.0668 36.8667 20.9501 36.8667 22.1001 35.8834L24.7335 33.6334C25.2335 33.2167 26.1668 32.8667 26.8335 32.8667H29.6668C31.4335 32.8667 32.8835 31.4167 32.8835 29.6501V26.8167C32.8835 26.1501 33.2335 25.2167 33.6501 24.7167L35.9001 22.0834C36.9168 20.9501 36.9168 19.0667 35.9335 17.9ZM18.7501 13.55C18.7501 12.8667 19.3168 12.3 20.0001 12.3C20.6835 12.3 21.2501 12.8667 21.2501 13.55V21.6C21.2501 22.2834 20.6835 22.85 20.0001 22.85C19.3168 22.85 18.7501 22.2834 18.7501 21.6V13.55ZM20.0001 28.1167C19.0835 28.1167 18.3335 27.3667 18.3335 26.4501C18.3335 25.5334 19.0668 24.7834 20.0001 24.7834C20.9168 24.7834 21.6668 25.5334 21.6668 26.4501C21.6668 27.3667 20.9335 28.1167 20.0001 28.1167Z" fill="#160C59"/>
</svg>
