<svg width="16" height="16" viewBox="0 0 16 16" fill="none" xmlns="http://www.w3.org/2000/svg">
<path d="M1.33301 12.6666V8.66658C1.33301 8.36658 1.39412 8.09436 1.51634 7.84992C1.63856 7.60547 1.79967 7.38881 1.99967 7.19992V5.33325C1.99967 4.7777 2.19412 4.30547 2.58301 3.91659C2.9719 3.5277 3.44412 3.33325 3.99967 3.33325H6.66634C6.9219 3.33325 7.16079 3.38059 7.38301 3.47525C7.60523 3.56992 7.81079 3.70036 7.99967 3.86659C8.18856 3.69992 8.39412 3.56947 8.61634 3.47525C8.83856 3.38103 9.07745 3.3337 9.33301 3.33325H11.9997C12.5552 3.33325 13.0275 3.5277 13.4163 3.91659C13.8052 4.30547 13.9997 4.7777 13.9997 5.33325V7.19992C14.1997 7.38881 14.3608 7.60547 14.483 7.84992C14.6052 8.09436 14.6663 8.36658 14.6663 8.66658V12.6666H13.333V11.3333H2.66634V12.6666H1.33301ZM8.66634 6.66658H12.6663V5.33325C12.6663 5.14436 12.6023 4.98614 12.4743 4.85859C12.3463 4.73103 12.1881 4.66703 11.9997 4.66659H9.33301C9.14412 4.66659 8.9859 4.73059 8.85834 4.85859C8.73079 4.98659 8.66679 5.14481 8.66634 5.33325V6.66658ZM3.33301 6.66658H7.33301V5.33325C7.33301 5.14436 7.26901 4.98614 7.14101 4.85859C7.01301 4.73103 6.85479 4.66703 6.66634 4.66659H3.99967C3.81079 4.66659 3.65256 4.73059 3.52501 4.85859C3.39745 4.98659 3.33345 5.14481 3.33301 5.33325V6.66658ZM2.66634 9.99992H13.333V8.66658C13.333 8.4777 13.269 8.31947 13.141 8.19192C13.013 8.06436 12.8548 8.00036 12.6663 7.99992H3.33301C3.14412 7.99992 2.9859 8.06392 2.85834 8.19192C2.73079 8.31992 2.66679 8.47814 2.66634 8.66658V9.99992Z" fill="#FF9704"/>
</svg>
