<svg width="24" height="24" viewBox="0 0 24 24" fill="none" xmlns="http://www.w3.org/2000/svg">
<path d="M3 19C2.71667 19 2.47934 18.904 2.288 18.712C2.09667 18.52 2.00067 18.2827 2 18C1.99934 17.7173 2.09534 17.48 2.288 17.288C2.48067 17.096 2.718 17 3 17H8V12C8 11.7167 8.096 11.4793 8.288 11.288C8.48 11.0967 8.71734 11.0007 9 11H14V6C14 5.71667 14.096 5.47933 14.288 5.288C14.48 5.09667 14.7173 5.00067 15 5H21C21.2833 5 21.521 5.096 21.713 5.288C21.905 5.48 22.0007 5.71733 22 6C21.9993 6.28267 21.9033 6.52033 21.712 6.713C21.5207 6.90567 21.2833 7.00133 21 7H16V12C16 12.2833 15.904 12.521 15.712 12.713C15.52 12.905 15.2827 13.0007 15 13H10V18C10 18.2833 9.904 18.521 9.712 18.713C9.52 18.905 9.28267 19.0007 9 19H3Z" fill="black"/>
</svg>
