<svg width="40" height="40" viewBox="0 0 40 40" fill="none" xmlns="http://www.w3.org/2000/svg">
<path d="M26.6668 3.33337H13.3335C6.66683 3.33337 3.3335 6.66671 3.3335 13.3334V35C3.3335 35.9167 4.0835 36.6667 5.00016 36.6667H26.6668C33.3335 36.6667 36.6668 33.3334 36.6668 26.6667V13.3334C36.6668 6.66671 33.3335 3.33337 26.6668 3.33337ZM18.5168 27.7667C18.1002 28.1834 17.3335 28.5667 16.7668 28.65L13.3002 29.1334C13.1668 29.15 13.0335 29.1667 12.9168 29.1667C12.3335 29.1667 11.8002 28.9667 11.4168 28.5834C10.9502 28.1167 10.7502 27.4334 10.8668 26.7L11.3502 23.2334C11.4335 22.6667 11.8168 21.8834 12.2335 21.4834L18.5168 15.2C18.6168 15.5 18.7502 15.8 18.9002 16.1334C19.0502 16.4334 19.2002 16.7334 19.3668 17.0167C19.5002 17.25 19.6502 17.4834 19.7835 17.65C19.9502 17.9 20.1168 18.1167 20.2335 18.2334C20.3002 18.3334 20.3668 18.4 20.3835 18.4334C20.7502 18.85 21.1335 19.25 21.5002 19.55C21.6002 19.65 21.6668 19.7 21.6835 19.7167C21.9002 19.8834 22.1002 20.0667 22.3002 20.1834C22.5168 20.35 22.7502 20.5 22.9835 20.6334C23.2668 20.8 23.5668 20.9667 23.8835 21.1167C24.2002 21.2667 24.5002 21.3834 24.8002 21.4834L18.5168 27.7667ZM27.5835 18.7167L26.2835 20.0167C26.2002 20.1 26.0835 20.15 25.9668 20.15C25.9335 20.15 25.8668 20.15 25.8335 20.1334C22.9668 19.3167 20.6835 17.0334 19.8668 14.1667C19.8168 14.0167 19.8668 13.85 19.9835 13.7334L21.3002 12.4167C23.4502 10.2667 25.4835 10.3167 27.5835 12.4167C28.6502 13.4834 29.1835 14.5167 29.1668 15.5834C29.1668 16.6334 28.6502 17.65 27.5835 18.7167Z" fill="#160C59"/>
</svg>
