<svg width="18" height="18" viewBox="0 0 18 18" fill="none" xmlns="http://www.w3.org/2000/svg">
<path d="M12.75 15.375H5.25C3 15.375 1.5 14.25 1.5 11.625V6.375C1.5 3.75 3 2.625 5.25 2.625H12.75C15 2.625 16.5 3.75 16.5 6.375V11.625C16.5 14.25 15 15.375 12.75 15.375Z" stroke="#FF9704" stroke-miterlimit="10" stroke-linecap="round" stroke-linejoin="round"/>
<path d="M9 11.25C10.2426 11.25 11.25 10.2426 11.25 9C11.25 7.75736 10.2426 6.75 9 6.75C7.75736 6.75 6.75 7.75736 6.75 9C6.75 10.2426 7.75736 11.25 9 11.25Z" stroke="#FF9704" stroke-miterlimit="10" stroke-linecap="round" stroke-linejoin="round"/>
<path d="M4.125 7.125V10.875" stroke="#FF9704" stroke-miterlimit="10" stroke-linecap="round" stroke-linejoin="round"/>
<path d="M13.875 7.125V10.875" stroke="#FF9704" stroke-miterlimit="10" stroke-linecap="round" stroke-linejoin="round"/>
</svg>
