<svg width="25" height="25" viewBox="0 0 25 25" fill="none" xmlns="http://www.w3.org/2000/svg">
<path d="M12.683 11.4385C12.5865 11.4289 12.4707 11.4289 12.3646 11.4385C10.068 11.3613 8.24414 9.47961 8.24414 7.16366C8.24414 4.79946 10.1548 2.87915 12.5286 2.87915C14.8928 2.87915 16.8132 4.79946 16.8132 7.16366C16.8035 9.47961 14.9797 11.3613 12.683 11.4385Z" stroke="white" stroke-width="1.5" stroke-linecap="round" stroke-linejoin="round"/>
<path d="M7.85886 14.9992C5.52361 16.5625 5.52361 19.11 7.85886 20.6637C10.5125 22.4392 14.8646 22.4392 17.5183 20.6637C19.8535 19.1004 19.8535 16.5529 17.5183 14.9992C14.8743 13.2333 10.5222 13.2333 7.85886 14.9992Z" stroke="white" stroke-width="1.5" stroke-linecap="round" stroke-linejoin="round"/>
</svg>
