<svg width="24" height="24" viewBox="0 0 24 24" fill="none" xmlns="http://www.w3.org/2000/svg">
<path d="M18 20C20.2091 20 22 18.2091 22 16C22 13.7909 20.2091 12 18 12C15.7909 12 14 13.7909 14 16C14 18.2091 15.7909 20 18 20Z" stroke="black" stroke-width="1.5"/>
<path d="M6 20C8.20914 20 10 18.2091 10 16C10 13.7909 8.20914 12 6 12C3.79086 12 2 13.7909 2 16C2 18.2091 3.79086 20 6 20Z" stroke="black" stroke-width="1.5"/>
<path d="M14 16.214L13.344 15.98C12.4748 15.6699 11.5252 15.6699 10.656 15.98L10 16.214M2 16L2.763 7.605C2.878 6.341 2.936 5.709 3.306 5.242C3.676 4.775 4.278 4.574 5.482 4.172L6 4M22 16L21.237 7.605C21.122 6.341 21.065 5.709 20.695 5.242C20.325 4.775 19.722 4.574 18.518 4.172L18 4" stroke="black" stroke-width="1.5" stroke-linecap="round"/>
</svg>
