<svg width="16" height="16" viewBox="0 0 16 16" fill="none" xmlns="http://www.w3.org/2000/svg">
<path d="M8 5.66667V2" stroke="#FF9704" stroke-width="1.5" stroke-linecap="round" stroke-linejoin="round"/>
<path d="M8 13.9999V10.3333" stroke="#FF9704" stroke-width="1.5" stroke-linecap="round" stroke-linejoin="round"/>
<path d="M6.66699 2H9.33366" stroke="#FF9704" stroke-width="1.5" stroke-linecap="round" stroke-linejoin="round"/>
<path d="M6.66699 14H9.33366" stroke="#FF9704" stroke-width="1.5" stroke-linecap="round" stroke-linejoin="round"/>
<path d="M5.97997 6.83333L2.80664 5" stroke="#FF9704" stroke-width="1.5" stroke-linecap="round" stroke-linejoin="round"/>
<path d="M13.1929 11.0001L10.0195 9.16675" stroke="#FF9704" stroke-width="1.5" stroke-linecap="round" stroke-linejoin="round"/>
<path d="M2.13965 6.15334L3.47298 3.84668" stroke="#FF9704" stroke-width="1.5" stroke-linecap="round" stroke-linejoin="round"/>
<path d="M12.5264 12.1533L13.8597 9.84668" stroke="#FF9704" stroke-width="1.5" stroke-linecap="round" stroke-linejoin="round"/>
<path d="M10.3337 8.00008C10.3337 8.42675 10.2203 8.82008 10.0203 9.16675C9.61366 9.86675 8.86033 10.3334 8.00033 10.3334C7.14033 10.3334 6.38699 9.86675 5.98033 9.16675C5.78033 8.82008 5.66699 8.42675 5.66699 8.00008C5.66699 7.57341 5.78033 7.18008 5.98033 6.83341C6.38699 6.13341 7.14033 5.66675 8.00033 5.66675C8.86033 5.66675 9.61366 6.13341 10.0203 6.83341C10.2203 7.18008 10.3337 7.57341 10.3337 8.00008Z" stroke="#FF9704" stroke-width="1.5" stroke-linecap="round" stroke-linejoin="round"/>
<path d="M13.1929 5L10.0195 6.83333" stroke="#FF9704" stroke-width="1.5" stroke-linecap="round" stroke-linejoin="round"/>
<path d="M5.97997 9.16675L2.80664 11.0001" stroke="#FF9704" stroke-width="1.5" stroke-linecap="round" stroke-linejoin="round"/>
<path d="M13.8597 6.15334L12.5264 3.84668" stroke="#FF9704" stroke-width="1.5" stroke-linecap="round" stroke-linejoin="round"/>
<path d="M3.47298 12.1533L2.13965 9.84668" stroke="#FF9704" stroke-width="1.5" stroke-linecap="round" stroke-linejoin="round"/>
</svg>
