<svg width="16" height="16" viewBox="0 0 16 16" fill="none" xmlns="http://www.w3.org/2000/svg">
<path d="M0.5 16V15H2.5V0H10.5V1H13.5V15H15.5V16H12.5V2H10.5V16H0.5ZM7.5 8.77C7.70667 8.77 7.88667 8.69333 8.04 8.54C8.19333 8.38667 8.27 8.20667 8.27 8C8.27 7.79333 8.19333 7.61333 8.04 7.46C7.88667 7.30667 7.70667 7.23 7.5 7.23C7.29333 7.23 7.11333 7.30667 6.96 7.46C6.80667 7.61333 6.73 7.79333 6.73 8C6.73 8.20667 6.80667 8.38667 6.96 8.54C7.11333 8.69333 7.29333 8.77 7.5 8.77ZM3.5 15H9.5V1H3.5V15Z" fill="#FF9704"/>
</svg>
