<svg width="16" height="16" viewBox="0 0 16 16" fill="none" xmlns="http://www.w3.org/2000/svg">
<path d="M1.33301 10H12.333C13.6197 10 14.6663 11.0467 14.6663 12.3333C14.6663 13.62 13.6197 14.6667 12.333 14.6667C11.0463 14.6667 9.99967 13.62 9.99967 12.3333V12" stroke="#FF9704" stroke-width="1.5" stroke-miterlimit="10" stroke-linecap="round" stroke-linejoin="round"/>
<path d="M1.33301 7.99992H12.333C13.613 7.99992 14.6663 6.95325 14.6663 5.66659C14.6663 4.38659 13.613 3.33325 12.333 3.33325C11.053 3.33325 9.99967 4.37992 9.99967 5.66659V5.99992" stroke="#FF9704" stroke-width="1.5" stroke-miterlimit="10" stroke-linecap="round" stroke-linejoin="round"/>
<path d="M1.33301 6H6.20634C7.19967 6 7.99967 5.19333 7.99967 4.20666C7.99967 3.21333 7.19301 2.41333 6.20634 2.41333C5.21301 2.41333 4.413 3.22 4.413 4.20666V4.46" stroke="#FF9704" stroke-width="1.5" stroke-miterlimit="10" stroke-linecap="round" stroke-linejoin="round"/>
</svg>
